<svg width="189" height="189" viewBox="0 0 189 189" fill="none"
    xmlns="http://www.w3.org/2000/svg">
    <path d="M77.8377 99.492C80.9397 99.492 82.6337 98.238 82.6337 95.026V93.684C82.6337 90.56 80.9397 89.328 77.8377 89.328H72.6017V99.492H77.8377ZM69.5217 86.82H78.0137C83.0737 86.82 85.7577 88.888 85.7577 94.41C85.7577 99.844 83.0737 102 78.0137 102H69.5217V86.82ZM88.4924 86.82H98.0184C101.406 86.82 103.232 88.514 103.232 91.528C103.232 93.926 102.132 95.466 100.064 96.038L103.782 102H100.35L96.8084 96.302H91.5724V102H88.4924V86.82ZM100.13 91.836V91.286C100.13 89.988 99.4264 89.13 97.6004 89.13H91.5724V93.97H97.6004C99.4044 93.97 100.13 93.112 100.13 91.836ZM111.139 95.686L103.879 86.82H107.399L112.811 93.508L117.893 86.82H121.017L114.219 95.686V102H111.139V95.686Z" fill="currentColor" style="color: var(--dry-wet-text-color, #A6A6A6); opacity: 0.6;" />
</svg>
