<svg width="215" height="74" viewBox="0 0 215 74" fill="none" xmlns="http://www.w3.org/2000/svg">
<path d="M70.673 29.82H73.753V45H70.673V29.82ZM88.4033 45L79.9993 32.79V45H77.1613V29.82H81.3633L89.7453 42.008V29.82H92.5833V45H88.4033ZM96.0246 29.82H105.595C109.137 29.82 110.743 31.646 110.743 34.726C110.743 37.85 109.137 39.676 105.595 39.676H99.1046V45H96.0246V29.82ZM107.641 35.078V34.44C107.641 33.142 106.915 32.218 105.177 32.218H99.1046V37.278H105.177C106.915 37.278 107.641 36.398 107.641 35.078ZM112.95 38.84V29.82H116.03V38.752C116.03 41.942 117.658 42.888 120.716 42.888C123.774 42.888 125.402 41.942 125.402 38.752V29.82H128.306V38.84C128.306 43.24 125.776 45.264 120.716 45.264C115.546 45.264 112.95 43.24 112.95 38.84ZM136.4 32.328H130.196V29.82H145.684V32.328H139.48V45H136.4V32.328Z" fill="white" fill-opacity="0.6" style="fill:white;fill-opacity:0.6;"/>
</svg>
