<svg width="183" height="184" viewBox="0 0 183 184" fill="none"
    xmlns="http://www.w3.org/2000/svg">
    <g filter="url(#filter0_ii_27_46)">
        <path d="M127.19 0.337891V10.3112H148.668V49.3296V49.9857H160.697V10.3112H182.219V0.337891H127.19Z" fill="#EBEBEB" />
    </g>
    <g filter="url(#filter1_ii_27_46)">
        <path d="M49.4358 0.337891L33.6483 33.1882L17.8168 0.337891H0.578125V49.9871H12.6716V14.4543L28.1073 44.4461H39.1453L54.581 14.4543V49.9871H66.7184V0.337891H49.4358Z" fill="#EBEBEB" />
    </g>
    <g filter="url(#filter2_ii_27_46)">
        <path d="M170.375 165.929C170.067 167.908 169.276 169.535 168 170.767C166.813 171.91 165.186 172.746 163.163 173.229C161.184 173.669 158.238 173.933 155.159 173.933C151.949 173.933 149.135 173.537 146.716 172.702C144.385 171.91 142.538 170.503 141.263 168.568C139.944 166.633 139.284 163.818 139.284 160.168V155.111C139.284 151.505 139.944 148.691 141.263 146.712C142.582 144.777 144.385 143.369 146.716 142.578C149.091 141.742 151.949 141.347 155.159 141.347C158.238 141.347 161.184 141.61 163.163 142.05C165.186 142.534 166.813 143.326 168 144.513C169.276 145.744 170.067 147.371 170.375 149.35H182.469C182.117 145.26 180.753 141.786 178.335 138.972C176.136 136.421 173.058 134.574 169.232 133.431C165.538 132.331 160.656 131.76 155.159 131.76C149.354 131.76 144.341 132.595 140.207 134.222C136.03 135.894 132.775 138.664 130.533 142.49C128.378 146.14 127.278 151.065 127.19 157.046V157.618L127.85 157.662L127.19 157.706V157.75V158.277C127.278 164.258 128.378 169.184 130.533 172.834C132.775 176.66 136.03 179.43 140.207 181.101C144.341 182.728 149.354 183.564 155.159 183.564C160.656 183.564 165.538 182.992 169.232 181.893C173.058 180.749 176.092 178.902 178.335 176.352C180.753 173.581 182.161 170.063 182.469 165.973H170.375V165.929Z" fill="#EBEBEB" />
    </g>
    <defs>
        <filter id="filter0_ii_27_46" x="124.472" y="-2.38044" width="60.465" height="55.0846" filterUnits="userSpaceOnUse" color-interpolation-filters="sRGB">
            <feFlood flood-opacity="0" result="BackgroundImageFix"/>
            <feBlend mode="normal" in="SourceGraphic" in2="BackgroundImageFix" result="shape"/>
            <feColorMatrix in="SourceAlpha" type="matrix" values="0 0 0 0 0 0 0 0 0 0 0 0 0 0 0 0 0 0 127 0" result="hardAlpha"/>
            <feOffset dx="-2.71833" dy="-2.71833"/>
            <feGaussianBlur stdDeviation="1.35916"/>
            <feComposite in2="hardAlpha" operator="arithmetic" k2="-1" k3="1"/>
            <feColorMatrix type="matrix" values="0 0 0 0 1 0 0 0 0 1 0 0 0 0 1 0 0 0 0.8 0"/>
            <feBlend mode="normal" in2="shape" result="effect1_innerShadow_27_46"/>
            <feColorMatrix in="SourceAlpha" type="matrix" values="0 0 0 0 0 0 0 0 0 0 0 0 0 0 0 0 0 0 127 0" result="hardAlpha"/>
            <feOffset dx="2.71833" dy="2.71833"/>
            <feGaussianBlur stdDeviation="1.35916"/>
            <feComposite in2="hardAlpha" operator="arithmetic" k2="-1" k3="1"/>
            <feColorMatrix type="matrix" values="0 0 0 0 0.736833 0 0 0 0 0.736833 0 0 0 0 0.736833 0 0 0 0.2 0"/>
            <feBlend mode="normal" in2="effect1_innerShadow_27_46" result="effect2_innerShadow_27_46"/>
        </filter>
        <filter id="filter1_ii_27_46" x="-2.1402" y="-2.38044" width="71.5773" height="55.0861" filterUnits="userSpaceOnUse" color-interpolation-filters="sRGB">
            <feFlood flood-opacity="0" result="BackgroundImageFix"/>
            <feBlend mode="normal" in="SourceGraphic" in2="BackgroundImageFix" result="shape"/>
            <feColorMatrix in="SourceAlpha" type="matrix" values="0 0 0 0 0 0 0 0 0 0 0 0 0 0 0 0 0 0 127 0" result="hardAlpha"/>
            <feOffset dx="-2.71833" dy="-2.71833"/>
            <feGaussianBlur stdDeviation="1.35916"/>
            <feComposite in2="hardAlpha" operator="arithmetic" k2="-1" k3="1"/>
            <feColorMatrix type="matrix" values="0 0 0 0 1 0 0 0 0 1 0 0 0 0 1 0 0 0 0.8 0"/>
            <feBlend mode="normal" in2="shape" result="effect1_innerShadow_27_46"/>
            <feColorMatrix in="SourceAlpha" type="matrix" values="0 0 0 0 0 0 0 0 0 0 0 0 0 0 0 0 0 0 127 0" result="hardAlpha"/>
            <feOffset dx="2.71833" dy="2.71833"/>
            <feGaussianBlur stdDeviation="1.35916"/>
            <feComposite in2="hardAlpha" operator="arithmetic" k2="-1" k3="1"/>
            <feColorMatrix type="matrix" values="0 0 0 0 0.736833 0 0 0 0 0.736833 0 0 0 0 0.736833 0 0 0 0.2 0"/>
            <feBlend mode="normal" in2="effect1_innerShadow_27_46" result="effect2_innerShadow_27_46"/>
        </filter>
        <filter id="filter2_ii_27_46" x="124.472" y="129.041" width="60.715" height="57.2409" filterUnits="userSpaceOnUse" color-interpolation-filters="sRGB">
            <feFlood flood-opacity="0" result="BackgroundImageFix"/>
            <feBlend mode="normal" in="SourceGraphic" in2="BackgroundImageFix" result="shape"/>
            <feColorMatrix in="SourceAlpha" type="matrix" values="0 0 0 0 0 0 0 0 0 0 0 0 0 0 0 0 0 0 127 0" result="hardAlpha"/>
            <feOffset dx="-2.71833" dy="-2.71833"/>
            <feGaussianBlur stdDeviation="1.35916"/>
            <feComposite in2="hardAlpha" operator="arithmetic" k2="-1" k3="1"/>
            <feColorMatrix type="matrix" values="0 0 0 0 1 0 0 0 0 1 0 0 0 0 1 0 0 0 0.8 0"/>
            <feBlend mode="normal" in2="shape" result="effect1_innerShadow_27_46"/>
            <feColorMatrix in="SourceAlpha" type="matrix" values="0 0 0 0 0 0 0 0 0 0 0 0 0 0 0 0 0 0 127 0" result="hardAlpha"/>
            <feOffset dx="2.71833" dy="2.71833"/>
            <feGaussianBlur stdDeviation="1.35916"/>
            <feComposite in2="hardAlpha" operator="arithmetic" k2="-1" k3="1"/>
            <feColorMatrix type="matrix" values="0 0 0 0 0.736833 0 0 0 0 0.736833 0 0 0 0 0.736833 0 0 0 0.2 0"/>
            <feBlend mode="normal" in2="effect1_innerShadow_27_46" result="effect2_innerShadow_27_46"/>
        </filter>
    </defs>
</svg>
