<svg width="136" height="137" viewBox="0 0 136 137" fill="none"
    xmlns="http://www.w3.org/2000/svg">
    <g filter="url(#filter0_i_0_1)">
        <path d="M94.5625 0.0869141V7.52125H110.572V36.6064V37.0955H119.539V7.52125H135.582V0.0869141H94.5625Z" fill="#2D2D2D"/>
    </g>
    <g filter="url(#filter1_i_0_1)">
        <path d="M36.6022 0.0869141L24.8339 24.5743L13.0327 0.0869141H0.182617V37.0966H9.19737V10.6096L20.7035 32.9662H28.9315L40.4376 10.6096V37.0966H49.4851V0.0869141H36.6022Z" fill="#2D2D2D"/>
    </g>
    <g filter="url(#filter2_i_0_1)">
        <path d="M126.753 123.523C126.524 124.998 125.934 126.211 124.983 127.128C124.098 127.981 122.885 128.604 121.377 128.964C119.902 129.292 117.706 129.489 115.411 129.489C113.018 129.489 110.92 129.194 109.117 128.571C107.38 127.981 106.003 126.932 105.052 125.489C104.069 124.047 103.577 121.949 103.577 119.228V115.458C103.577 112.77 104.069 110.672 105.052 109.197C106.036 107.755 107.38 106.706 109.117 106.116C110.887 105.493 113.018 105.198 115.411 105.198C117.706 105.198 119.902 105.395 121.377 105.722C122.885 106.083 124.098 106.673 124.983 107.558C125.934 108.476 126.524 109.689 126.753 111.164H135.768C135.506 108.115 134.49 105.526 132.687 103.428C131.048 101.527 128.753 100.15 125.901 99.2974C123.147 98.4779 119.509 98.0518 115.411 98.0518C111.084 98.0518 107.347 98.6746 104.266 99.8875C101.151 101.133 98.7257 103.198 97.0538 106.05C95.4476 108.771 94.6281 112.443 94.5625 116.901V117.327L95.0542 117.36L94.5625 117.392V117.425V117.819C94.6281 122.277 95.4476 125.948 97.0538 128.669C98.7257 131.521 101.151 133.586 104.266 134.832C107.347 136.045 111.084 136.668 115.411 136.668C119.509 136.668 123.147 136.242 125.901 135.422C128.753 134.57 131.015 133.193 132.687 131.292C134.49 129.226 135.539 126.604 135.768 123.555H126.753V123.523Z" fill="#2D2D2D"/>
    </g>
    <defs>
        <filter id="filter0_i_0_1" x="94.5625" y="0.0869141" width="42.0195" height="38.0088" filterUnits="userSpaceOnUse" color-interpolation-filters="sRGB">
            <feFlood flood-opacity="0" result="BackgroundImageFix"/>
            <feBlend mode="normal" in="SourceGraphic" in2="BackgroundImageFix" result="shape"/>
            <feColorMatrix in="SourceAlpha" type="matrix" values="0 0 0 0 0 0 0 0 0 0 0 0 0 0 0 0 0 0 127 0" result="hardAlpha"/>
            <feOffset dx="1" dy="1"/>
            <feGaussianBlur stdDeviation="2.5"/>
            <feComposite in2="hardAlpha" operator="arithmetic" k2="-1" k3="1"/>
            <feColorMatrix type="matrix" values="0 0 0 0 0 0 0 0 0 0 0 0 0 0 0 0 0 0 0.2 0"/>
            <feBlend mode="normal" in2="shape" result="effect1_innerShadow_0_1"/>
        </filter>
        <filter id="filter1_i_0_1" x="0.182617" y="0.0869141" width="50.3027" height="38.0098" filterUnits="userSpaceOnUse" color-interpolation-filters="sRGB">
            <feFlood flood-opacity="0" result="BackgroundImageFix"/>
            <feBlend mode="normal" in="SourceGraphic" in2="BackgroundImageFix" result="shape"/>
            <feColorMatrix in="SourceAlpha" type="matrix" values="0 0 0 0 0 0 0 0 0 0 0 0 0 0 0 0 0 0 127 0" result="hardAlpha"/>
            <feOffset dx="1" dy="1"/>
            <feGaussianBlur stdDeviation="2.5"/>
            <feComposite in2="hardAlpha" operator="arithmetic" k2="-1" k3="1"/>
            <feColorMatrix type="matrix" values="0 0 0 0 0 0 0 0 0 0 0 0 0 0 0 0 0 0 0.2 0"/>
            <feBlend mode="normal" in2="shape" result="effect1_innerShadow_0_1"/>
        </filter>
        <filter id="filter2_i_0_1" x="94.5625" y="98.0518" width="42.2061" height="39.6157" filterUnits="userSpaceOnUse" color-interpolation-filters="sRGB">
            <feFlood flood-opacity="0" result="BackgroundImageFix"/>
            <feBlend mode="normal" in="SourceGraphic" in2="BackgroundImageFix" result="shape"/>
            <feColorMatrix in="SourceAlpha" type="matrix" values="0 0 0 0 0 0 0 0 0 0 0 0 0 0 0 0 0 0 127 0" result="hardAlpha"/>
            <feOffset dx="1" dy="1"/>
            <feGaussianBlur stdDeviation="2.5"/>
            <feComposite in2="hardAlpha" operator="arithmetic" k2="-1" k3="1"/>
            <feColorMatrix type="matrix" values="0 0 0 0 0 0 0 0 0 0 0 0 0 0 0 0 0 0 0.2 0"/>
            <feBlend mode="normal" in2="shape" result="effect1_innerShadow_0_1"/>
        </filter>
    </defs>
</svg>
