<svg width="438" height="74" viewBox="0 0 438 74" fill="none"
    xmlns="http://www.w3.org/2000/svg">
    <path d="M41.1878 45L36.4138 32.394V45H33.5978V29.82H38.3938L43.0358 42.25L47.7218 29.82H52.3638V45H49.3058V32.328L44.5098 45H41.1878ZM60.6312 32.328H54.4272V29.82H69.9152V32.328H63.7112V45H60.6312V32.328ZM70.4915 37.432C70.4915 31.668 73.5495 29.556 78.9175 29.556C83.7575 29.556 86.4855 31.008 86.9255 34.748H83.8235C83.4275 32.57 81.8215 31.954 78.9175 31.954C75.6835 31.954 73.5935 33.032 73.5935 36.618V38.158C73.5935 41.678 75.6395 42.866 78.9175 42.866C81.7115 42.866 83.3395 42.338 83.8455 40.248H86.9475C86.3975 43.834 83.7135 45.264 78.9175 45.264C73.5495 45.264 70.4915 43.218 70.4915 37.432ZM93.7555 40.578H96.9015C97.3195 42.492 98.7055 42.976 101.675 42.976C104.733 42.976 106.097 42.316 106.097 40.732C106.097 36.53 94.0415 40.886 94.0415 34.11C94.0415 30.92 96.7255 29.556 101.411 29.556C106.053 29.556 108.583 30.832 108.891 34.022H105.745C105.503 32.306 103.919 31.844 101.411 31.844C98.5075 31.844 97.0555 32.372 97.0555 34.044C97.0555 38.026 109.133 33.846 109.133 40.556C109.133 43.878 106.801 45.264 101.675 45.264C96.4835 45.264 94.1515 43.944 93.7555 40.578ZM116.583 29.82H120.807L127.495 45H124.283L122.589 41.106H114.471L112.777 45H109.873L116.583 29.82ZM118.519 31.822L115.461 38.84H121.599L118.519 31.822ZM136.901 45L132.127 32.394V45H129.311V29.82H134.107L138.749 42.25L143.435 29.82H148.077V45H145.019V32.328L140.223 45H136.901ZM151.504 29.82H161.074C164.616 29.82 166.222 31.646 166.222 34.726C166.222 37.85 164.616 39.676 161.074 39.676H154.584V45H151.504V29.82ZM163.12 35.078V34.44C163.12 33.142 162.394 32.218 160.656 32.218H154.584V37.278H160.656C162.394 37.278 163.12 36.398 163.12 35.078ZM168.606 29.82H171.686V42.492H180.97V45H168.606V29.82ZM183.065 29.82H196.089V32.218H186.145V36.09H193.801V38.4H186.145V42.602H196.177V45H183.065V29.82ZM198.813 29.82H208.339C211.727 29.82 213.553 31.514 213.553 34.528C213.553 36.926 212.453 38.466 210.385 39.038L214.103 45H210.671L207.129 39.302H201.893V45H198.813V29.82ZM210.451 34.836V34.286C210.451 32.988 209.747 32.13 207.921 32.13H201.893V36.97H207.921C209.725 36.97 210.451 36.112 210.451 34.836ZM221.033 37.432C221.033 31.668 224.091 29.556 229.459 29.556C234.299 29.556 237.027 31.008 237.467 34.748H234.365C233.969 32.57 232.363 31.954 229.459 31.954C226.225 31.954 224.135 33.032 224.135 36.618V38.158C224.135 41.678 226.181 42.866 229.459 42.866C232.253 42.866 233.881 42.338 234.387 40.248H237.489C236.939 43.834 234.255 45.264 229.459 45.264C224.091 45.264 221.033 43.218 221.033 37.432ZM254.145 38.158V36.596C254.145 33.252 252.165 31.954 248.249 31.954C244.311 31.954 242.353 33.252 242.353 36.596V38.158C242.353 41.546 244.311 42.866 248.249 42.866C252.165 42.866 254.145 41.568 254.145 38.158ZM239.251 37.344C239.251 31.58 242.375 29.556 248.249 29.556C254.123 29.556 257.247 31.58 257.247 37.344C257.247 43.196 254.123 45.264 248.249 45.264C242.375 45.264 239.251 43.196 239.251 37.344ZM267.569 45L262.795 32.394V45H259.979V29.82H264.775L269.417 42.25L274.103 29.82H278.745V45H275.687V32.328L270.891 45H267.569ZM282.172 29.82H291.742C295.284 29.82 296.89 31.646 296.89 34.726C296.89 37.85 295.284 39.676 291.742 39.676H285.252V45H282.172V29.82ZM293.788 35.078V34.44C293.788 33.142 293.062 32.218 291.324 32.218H285.252V37.278H291.324C293.062 37.278 293.788 36.398 293.788 35.078ZM313.464 38.158V36.596C313.464 33.252 311.484 31.954 307.568 31.954C303.63 31.954 301.672 33.252 301.672 36.596V38.158C301.672 41.546 303.63 42.866 307.568 42.866C311.484 42.866 313.464 41.568 313.464 38.158ZM298.57 37.344C298.57 31.58 301.694 29.556 307.568 29.556C313.442 29.556 316.566 31.58 316.566 37.344C316.566 43.196 313.442 45.264 307.568 45.264C301.694 45.264 298.57 43.196 298.57 37.344ZM318.439 40.578H321.585C322.003 42.492 323.389 42.976 326.359 42.976C329.417 42.976 330.781 42.316 330.781 40.732C330.781 36.53 318.725 40.886 318.725 34.11C318.725 30.92 321.409 29.556 326.095 29.556C330.737 29.556 333.267 30.832 333.575 34.022H330.429C330.187 32.306 328.603 31.844 326.095 31.844C323.191 31.844 321.739 32.372 321.739 34.044C321.739 38.026 333.817 33.846 333.817 40.556C333.817 43.878 331.485 45.264 326.359 45.264C321.167 45.264 318.835 43.944 318.439 40.578ZM336.463 29.82H349.487V32.218H339.543V36.09H347.199V38.4H339.543V42.602H349.575V45H336.463V29.82ZM352.211 29.82H361.737C365.125 29.82 366.951 31.514 366.951 34.528C366.951 36.926 365.851 38.466 363.783 39.038L367.501 45H364.069L360.527 39.302H355.291V45H352.211V29.82ZM363.849 34.836V34.286C363.849 32.988 363.145 32.13 361.319 32.13H355.291V36.97H361.319C363.123 36.97 363.849 36.112 363.849 34.836ZM369.782 34.132C370.772 34.132 371.19 33.78 371.19 32.944V32.68H371.08C369.958 32.68 369.342 32.174 369.342 31.096C369.342 30.04 369.936 29.534 371.124 29.534C372.334 29.534 372.928 30.04 372.928 31.206V32.68C372.928 34.814 372.004 35.672 369.782 35.672V34.132ZM375.142 43.768C375.142 35.848 385.394 38.598 385.394 34.352V33.89C385.394 32.394 384.118 31.91 382.05 31.91C379.674 31.91 378.596 32.482 378.354 34.374H375.252C375.516 30.744 378.024 29.556 382.072 29.556C386.142 29.556 388.496 30.744 388.496 34.088C388.496 40.534 378.75 37.982 378.332 42.536H388.496V45H375.142V43.768ZM389.889 39.39L398.469 29.82H402.781V39.016H405.487V41.326H402.781V45H399.701V41.326H389.889V39.39ZM393.277 39.016H399.701V31.822L393.277 39.016Z" fill="white" fill-opacity="0.6" style="fill:white;fill-opacity:0.6;"/>
</svg>
