<svg width="215" height="74" viewBox="0 0 215 74" fill="none" xmlns="http://www.w3.org/2000/svg">
<path d="M70.2107 38.158V36.596C70.2107 33.252 68.2307 31.954 64.3147 31.954C60.3767 31.954 58.4187 33.252 58.4187 36.596V38.158C58.4187 41.546 60.3767 42.866 64.3147 42.866C68.2307 42.866 70.2107 41.568 70.2107 38.158ZM55.3167 37.344C55.3167 31.58 58.4407 29.556 64.3147 29.556C70.1887 29.556 73.3127 31.58 73.3127 37.344C73.3127 43.196 70.1887 45.264 64.3147 45.264C58.4407 45.264 55.3167 43.196 55.3167 37.344ZM75.8681 38.84V29.82H78.9481V38.752C78.9481 41.942 80.5761 42.888 83.6341 42.888C86.6921 42.888 88.3201 41.942 88.3201 38.752V29.82H91.2241V38.84C91.2241 43.24 88.6941 45.264 83.6341 45.264C78.4641 45.264 75.8681 43.24 75.8681 38.84ZM99.3177 32.328H93.1137V29.82H108.602V32.328H102.398V45H99.3177V32.328ZM110.677 29.82H120.247C123.789 29.82 125.395 31.646 125.395 34.726C125.395 37.85 123.789 39.676 120.247 39.676H113.757V45H110.677V29.82ZM122.293 35.078V34.44C122.293 33.142 121.567 32.218 119.829 32.218H113.757V37.278H119.829C121.567 37.278 122.293 36.398 122.293 35.078ZM127.603 38.84V29.82H130.683V38.752C130.683 41.942 132.311 42.888 135.369 42.888C138.427 42.888 140.055 41.942 140.055 38.752V29.82H142.959V38.84C142.959 43.24 140.429 45.264 135.369 45.264C130.199 45.264 127.603 43.24 127.603 38.84ZM151.052 32.328H144.848V29.82H160.336V32.328H154.132V45H151.052V32.328Z" fill="white" fill-opacity="0.6" style="fill:white;fill-opacity:0.6;"/>
</svg>
